# xmcd CD database file
#
# Track frame offsets:
#	150
#	7650
#	15150
#	31050
#	46949
#	57899
#	68848
#	80098
#	91348
#	103423
#	115513
#	130888
#	146263
#	158413
#	170562
#	181608
#	192633
#	203005
#	213404
#	224203
#	235003
#	246092
#	257257
#	267907
#	278557
#	290256
#	301955
#	312455
#	323105
#
# Disc length: 4352 seconds
#
# Revision: 0
# Processed by: cddbd v1.5.2PL0 Copyright (c) Steve Scherf et al.
# Submitted via: CDex 1.51
#
DISCID=8710fe1d
DTITLE=Greg Fishman - Hip licks for saxophone Tenor Slow
DYEAR=2012
DGENRE=Jazz
TTITLE0=Tenor-slow-IIm7-V7-sax
TTITLE1=Tenor-slow-IIm7-V7-rhythm
TTITLE2=Tenor-slow-IIm7-V7_Imaj7-sax
TTITLE3=Tenor-slow-IIm7-V7-Imaj-rhythm
TTITLE4=Tenor-slow-Maj7-sax
TTITLE5=Tenor-slow-Maj7-rhythm
TTITLE6=Tenor-slow-V7-sax
TTITLE7=Tenor-slow-V7-rhythm
TTITLE8=Tenor-slow-Minor7-sax
TTITLE9=Tenor-slow-Minor7-rhythm
TTITLE10=Tenor-slow-IIm7b5-V7-Im-sax
TTITLE11=Tenor-slow-IIm7b5-V7-Im-rhythm
TTITLE12=Tenor-slow-Maj-min7-sax
TTITLE13=Tenor-slow-Maj-min7-rhythm
TTITLE14=Tenor-slow-Minor-sax
TTITLE15=Tenor-slow-Minor-rhythm
TTITLE16=Tenor-slow-IIm7-V7-Imaj7-sax
TTITLE17=Tenor-slow-IIm7-V7-Imaj7-rhythm
TTITLE18=Tenor-slow-V7b9-sax
TTITLE19=Tenor-slow-V7b9-rhythm
TTITLE20=Tenor-slow-V+7-sax
TTITLE21=Tenor-slow-V+7-rhythm
TTITLE22=Tenor-slow-dim7-sax
TTITLE23=Tenor-slow-dim7-rhythm
TTITLE24=Tenor-slow-IIm7b5-V7b9-Im-sax
TTITLE25=Tenor-slow-IIm7b5-V7b9-Im-rhythm
TTITLE26=Tenor-slow-IIm7-V7-Imaj7-sax
TTITLE27=Tenor-slow-IIm7-V7-Imaj7-rhythm
TTITLE28=Tenor-slow-tune
EXTD=YEAR: 2012
EXTT0=
EXTT1=
EXTT2=
EXTT3=
EXTT4=
EXTT5=
EXTT6=
EXTT7=
EXTT8=
EXTT9=
EXTT10=
EXTT11=
EXTT12=
EXTT13=
EXTT14=
EXTT15=
EXTT16=
EXTT17=
EXTT18=
EXTT19=
EXTT20=
EXTT21=
EXTT22=
EXTT23=
EXTT24=
EXTT25=
EXTT26=
EXTT27=
EXTT28=
PLAYORDER=
